<svg xmlns="http://www.w3.org/2000/svg" width="216.094" height="61" viewBox="0 0 216.094 61">
  <path id="Color_Overlay" data-name="Color Overlay" d="M426,91a1.165,1.165,0,0,1-1.164-1.165V74.856A1.165,1.165,0,0,1,426,73.689h14.95a1.164,1.164,0,0,1,1.163,1.166V89.834A1.164,1.164,0,0,1,440.946,91Zm-21.058,0a1.165,1.165,0,0,1-1.164-1.165V74.856a1.165,1.165,0,0,1,1.164-1.166h14.95a1.165,1.165,0,0,1,1.164,1.166V89.834A1.165,1.165,0,0,1,419.888,91ZM514,89.061l.306-1.305a.455.455,0,0,1-.324-.459.477.477,0,1,1,.954,0,1.469,1.469,0,0,1-.126.522l-.378,1.242Zm25.164-2.079.261-.513a3.094,3.094,0,0,0,2.079.765c1.179,0,1.692-.495,1.692-1.116,0-1.728-3.879-.666-3.879-3,0-.927.72-1.728,2.322-1.728a3.556,3.556,0,0,1,1.953.558l-.225.531a3.244,3.244,0,0,0-1.728-.522c-1.152,0-1.665.513-1.665,1.143,0,1.728,3.879.684,3.879,2.979,0,.927-.738,1.719-2.349,1.719A3.416,3.416,0,0,1,539.16,86.982ZM517.713,86.9l.4-.45a1.6,1.6,0,0,0,1.359.774c.774,0,1.17-.459,1.17-1.386V82.023h-2.3v-.576H521.3v4.365c0,1.332-.63,1.989-1.836,1.989A2.071,2.071,0,0,1,517.713,86.9Zm58.4.4a.476.476,0,0,1,.477-.486.484.484,0,0,1,.486.486.492.492,0,0,1-.486.5A.484.484,0,0,1,576.114,87.3Zm-4.644-.09.288-.5a2.859,2.859,0,0,0,1.683.531c.9,0,1.269-.306,1.269-.774,0-1.233-3.069-.261-3.069-2.133,0-.774.666-1.35,1.872-1.35a3.208,3.208,0,0,1,1.674.441l-.279.513a2.426,2.426,0,0,0-1.4-.405c-.855,0-1.233.333-1.233.783,0,1.278,3.069.315,3.069,2.133,0,.819-.72,1.35-1.953,1.35A3.163,3.163,0,0,1,571.47,87.207Zm-5.256-1.827a2.28,2.28,0,0,1,2.313-2.4,2.256,2.256,0,0,1,2.295,2.4c0,.054-.009.126-.009.2h-3.96a1.752,1.752,0,0,0,1.863,1.647,1.866,1.866,0,0,0,1.449-.621l.36.414a2.5,2.5,0,0,1-4.311-1.638Zm.639-.279h3.357a1.682,1.682,0,0,0-3.357,0Zm-5.553.279a2.33,2.33,0,0,1,2.439-2.4,2.068,2.068,0,0,1,1.854.936l-.477.324a1.609,1.609,0,0,0-1.377-.7,1.846,1.846,0,0,0,0,3.69,1.6,1.6,0,0,0,1.377-.693l.477.324a2.087,2.087,0,0,1-1.854.936A2.337,2.337,0,0,1,561.3,85.38Zm-16.614,0a2.28,2.28,0,0,1,2.313-2.4,2.256,2.256,0,0,1,2.295,2.4c0,.054-.009.126-.009.2h-3.96a1.752,1.752,0,0,0,1.863,1.647,1.866,1.866,0,0,0,1.449-.621l.36.414a2.5,2.5,0,0,1-4.311-1.638Zm.639-.279h3.357a1.682,1.682,0,0,0-3.357,0Zm-11.6,1.314V83.553h-.846v-.54h.846V81.978h.639v1.035h1.44v.54h-1.44v2.826a.758.758,0,0,0,.819.864,1.058,1.058,0,0,0,.7-.243l.225.459a1.522,1.522,0,0,1-1,.333A1.254,1.254,0,0,1,533.724,86.415Zm-5.166.792.288-.5a2.859,2.859,0,0,0,1.683.531c.9,0,1.269-.306,1.269-.774,0-1.233-3.069-.261-3.069-2.133,0-.774.666-1.35,1.872-1.35a3.208,3.208,0,0,1,1.674.441l-.279.513a2.426,2.426,0,0,0-1.4-.405c-.855,0-1.233.333-1.233.783,0,1.278,3.069.315,3.069,2.133,0,.819-.72,1.35-1.953,1.35A3.163,3.163,0,0,1,528.558,87.207Zm-5.445-1.449V83.013h.639V85.7a1.325,1.325,0,0,0,1.422,1.521,1.539,1.539,0,0,0,1.611-1.719V83.013h.639v4.734h-.612v-.864a1.883,1.883,0,0,1-1.7.909A1.834,1.834,0,0,1,523.113,85.758Zm-13.788,1.449.288-.5a2.859,2.859,0,0,0,1.683.531c.9,0,1.269-.306,1.269-.774,0-1.233-3.069-.261-3.069-2.133,0-.774.666-1.35,1.872-1.35a3.208,3.208,0,0,1,1.674.441l-.279.513a2.426,2.426,0,0,0-1.395-.405c-.855,0-1.233.333-1.233.783,0,1.278,3.069.315,3.069,2.133,0,.819-.72,1.35-1.953,1.35A3.163,3.163,0,0,1,509.325,87.207Zm-5.256-1.827a2.28,2.28,0,0,1,2.313-2.4,2.256,2.256,0,0,1,2.295,2.4c0,.054-.009.126-.009.2h-3.96a1.752,1.752,0,0,0,1.863,1.647,1.866,1.866,0,0,0,1.449-.621l.36.414a2.5,2.5,0,0,1-4.311-1.638Zm.639-.279h3.357a1.682,1.682,0,0,0-3.357,0Zm-15.651.279a2.408,2.408,0,1,1,2.412,2.412A2.329,2.329,0,0,1,489.057,85.38Zm.648,0a1.761,1.761,0,1,0,1.764-1.845A1.733,1.733,0,0,0,489.705,85.38Zm-17.667,0a2.408,2.408,0,1,1,2.412,2.412A2.329,2.329,0,0,1,472.038,85.38Zm.648,0a1.761,1.761,0,1,0,1.764-1.845A1.733,1.733,0,0,0,472.686,85.38Zm86.67,2.367V83.013H560v4.734Zm-3.663,0-2.1-4.734h.666l1.773,4.032,1.791-4.032h.63l-2.106,4.734Zm-5.094,0V83.013h.612v.927a1.785,1.785,0,0,1,1.773-.963V83.6c-.054,0-.108-.009-.153-.009a1.531,1.531,0,0,0-1.593,1.746v2.412Zm-48.474,0V83.013h.639v4.734Zm-3.474,0V83.013h.612v.927a1.785,1.785,0,0,1,1.773-.963V83.6c-.054,0-.108-.009-.153-.009a1.531,1.531,0,0,0-1.593,1.746v2.412Zm-3.474,0V83.013h.612v.927a1.785,1.785,0,0,1,1.773-.963V83.6c-.054,0-.108-.009-.153-.009a1.531,1.531,0,0,0-1.593,1.746v2.412Zm-8.7,0-1.845-5.373-1.854,5.373h-.693l-2.124-6.3h.684l1.818,5.418,1.881-5.418h.621l1.854,5.445,1.845-5.445h.639l-2.124,6.3Zm-16.425,0L466,82.635v5.112h-.666v-6.3h.549l4.059,5.112V81.447h.657v6.3Zm89.163-6.228a.461.461,0,0,1,.468-.45.454.454,0,0,1,.468.441.468.468,0,0,1-.936.009Zm-57.231,0a.461.461,0,0,1,.468-.45.454.454,0,0,1,.468.441.468.468,0,0,1-.936.009Zm55.77-15.1c0-4.389,3.361-7.56,7.875-7.56a7.446,7.446,0,0,1,5.818,2.457l-1.764,1.659a5.164,5.164,0,0,0-3.928-1.722,5.167,5.167,0,1,0,0,10.332,5.111,5.111,0,0,0,3.928-1.743l1.764,1.68a7.953,7.953,0,0,1-13.693-5.1Zm-95.655,5.8.945-2.121a8.145,8.145,0,0,0,4.851,1.617c2.289,0,3.255-.819,3.255-1.912,0-3.171-8.736-1.092-8.736-6.552,0-2.372,1.89-4.388,5.922-4.388a9.3,9.3,0,0,1,4.893,1.3l-.861,2.121a8.171,8.171,0,0,0-4.053-1.155c-2.268,0-3.192.882-3.192,1.994,0,3.129,8.715,1.093,8.715,6.489,0,2.353-1.911,4.369-5.943,4.369A9.476,9.476,0,0,1,462.1,72.216Zm134.589.1v1.449h-2.5V58.188h2.624v5.733a4.664,4.664,0,0,1,3.591-1.491,5.744,5.744,0,0,1,0,11.488A4.625,4.625,0,0,1,596.686,72.32Zm.085-4.158a3.333,3.333,0,1,0,3.339-3.506A3.278,3.278,0,0,0,596.77,68.162Zm-16.969.8V62.555h2.625V68.6c0,2.038.966,3,2.625,3,1.827,0,3.065-1.134,3.065-3.381v-5.67h2.625V73.769h-2.5V72.342a4.581,4.581,0,0,1-3.612,1.575C581.755,73.917,579.8,72.342,579.8,68.961Zm-39.144,3.7,1.008-2a7.55,7.55,0,0,0,3.906,1.113c1.659,0,2.352-.463,2.352-1.239,0-2.142-6.93-.126-6.93-4.6,0-2.121,1.912-3.507,4.936-3.507a8.92,8.92,0,0,1,4.2.967l-1.008,1.994a6.138,6.138,0,0,0-3.213-.84c-1.6,0-2.352.525-2.352,1.26,0,2.268,6.93.252,6.93,4.641,0,2.1-1.932,3.465-5.082,3.465A8.913,8.913,0,0,1,540.658,72.657Zm-12.705-4.495a5.577,5.577,0,0,1,5.8-5.733,5.469,5.469,0,0,1,5.67,5.8c0,.211-.021.526-.041.778h-8.8a3.394,3.394,0,0,0,3.633,2.687,4.018,4.018,0,0,0,3.045-1.218l1.407,1.617a5.684,5.684,0,0,1-4.514,1.827C530.389,73.917,527.953,71.5,527.953,68.162Zm2.6-.9h6.363a3.053,3.053,0,0,0-3.172-2.73A3.1,3.1,0,0,0,530.557,67.26Zm-14.49.9c0-3.36,2.52-5.733,6.069-5.733a5.047,5.047,0,0,1,4.788,2.6l-2.016,1.175a3.173,3.173,0,0,0-2.793-1.553,3.508,3.508,0,0,0,0,7.014,3.174,3.174,0,0,0,2.793-1.554l2.016,1.176a5.1,5.1,0,0,1-4.788,2.625C518.587,73.917,516.067,71.523,516.067,68.162Zm-40.7,0a5.577,5.577,0,0,1,5.8-5.733,5.469,5.469,0,0,1,5.67,5.8c0,.211-.022.526-.042.778h-8.8a3.394,3.394,0,0,0,3.633,2.687,4.017,4.017,0,0,0,3.045-1.218l1.408,1.617a5.684,5.684,0,0,1-4.515,1.827C477.8,73.917,475.369,71.5,475.369,68.162Zm2.6-.9h6.363a3.052,3.052,0,0,0-3.171-2.73A3.1,3.1,0,0,0,477.973,67.26Zm95.844,6.51V58.188h2.625V73.769Zm-62.895,0V62.555h2.625V73.769Zm-9.156,0-4.81-11.214h2.731l3.486,8.316,3.591-8.316h2.52l-4.809,11.214Zm-12.411,0V62.555h2.5v1.638a4.415,4.415,0,0,1,3.991-1.764v2.5a3.311,3.311,0,0,0-.609-.063c-2,0-3.255,1.176-3.255,3.465v5.439ZM426,69.319a1.165,1.165,0,0,1-1.164-1.165V53.175A1.165,1.165,0,0,1,426,52.008h14.95a1.164,1.164,0,0,1,1.163,1.166V68.153a1.164,1.164,0,0,1-1.163,1.165Zm-21.058,0a1.165,1.165,0,0,1-1.164-1.165V53.175a1.165,1.165,0,0,1,1.164-1.166h14.95a1.165,1.165,0,0,1,1.164,1.166V68.153a1.165,1.165,0,0,1-1.164,1.165ZM510.565,59.133a1.6,1.6,0,0,1,1.68-1.575,1.563,1.563,0,0,1,1.68,1.512,1.682,1.682,0,0,1-3.361.063ZM390.2,57.595c-.993-2.581,1.953-5.013,2.92-5.813,7.656-6.321,24.488-19.442,25.551-20.271A6.124,6.124,0,0,1,422.567,30h.114a6,6,0,0,1,3.819,1.5c1.93,1.6,6.077,4.737,8.791,6.77V35.757h3.224v8.934l-2.57-1.9c-.344-.255-8.447-6.263-11.5-8.8a2.622,2.622,0,0,0-3.642-.051l-.1.083c-.175.138-17.7,13.787-25.53,20.254-1.561,1.291-1.872,1.979-1.931,2.18.585.59,3.5,1.023,6.156.905l.148,3.227c-.353.015-.777.028-1.247.028C395.543,60.615,391.2,60.188,390.2,57.595ZM450.6,60.6h-4.186v-3.23H450.6a4.741,4.741,0,0,0,1.1-.112c-.328-1.37-3.79-5.093-7.6-8.126l-.609-.485V35.733h3.224V47.1c3.758,3.063,9.184,8.17,8.07,11.358-.5,1.426-1.9,2.148-4.169,2.148ZM561.112,45.57a5.577,5.577,0,0,1,5.8-5.733,5.469,5.469,0,0,1,5.67,5.8c0,.211-.022.526-.042.778h-8.8A3.394,3.394,0,0,0,567.37,49.1a4.017,4.017,0,0,0,3.045-1.218l1.408,1.617a5.684,5.684,0,0,1-4.515,1.827C563.548,51.324,561.112,48.909,561.112,45.57Zm2.6-.9h6.363a3.052,3.052,0,0,0-3.171-2.73A3.1,3.1,0,0,0,563.716,44.667Zm-38.472.9a5.979,5.979,0,1,1,5.964,5.755A5.645,5.645,0,0,1,525.244,45.57Zm2.646,0a3.333,3.333,0,1,0,6.657,0,3.333,3.333,0,1,0-6.657,0Zm-38.514,0a5.577,5.577,0,0,1,5.8-5.733,5.469,5.469,0,0,1,5.67,5.8c0,.211-.021.526-.042.778H492a3.393,3.393,0,0,0,3.632,2.687,4.02,4.02,0,0,0,3.046-1.218l1.407,1.617a5.684,5.684,0,0,1-4.515,1.827C491.812,51.324,489.376,48.909,489.376,45.57Zm2.6-.9h6.363a3.052,3.052,0,0,0-3.171-2.73A3.1,3.1,0,0,0,491.98,44.667Zm63.861,6.51V45.087c0-2-.924-2.961-2.52-2.961-1.722,0-2.919,1.134-2.919,3.36v5.691h-2.625V45.087c0-2-.924-2.961-2.52-2.961-1.743,0-2.919,1.134-2.919,3.36v5.691h-2.625V39.963h2.5v1.428a4.644,4.644,0,0,1,3.675-1.554,4.2,4.2,0,0,1,3.78,1.869,5.235,5.235,0,0,1,4.2-1.869c2.709,0,4.6,1.534,4.6,4.914v6.426Zm-36.1,0v-6.3h-7.6v6.3h-2.73v-14.7h2.73v6.069h7.6V36.477h2.73v14.7Zm-35.595,0V45.087c0-2-.987-2.961-2.667-2.961-1.869,0-3.129,1.134-3.129,3.38v5.67h-2.625V35.6h2.625v5.67a5,5,0,0,1,3.738-1.428c2.688,0,4.684,1.534,4.684,4.914v6.426Zm-17.829,0V38.787h-4.872v-2.31H473.92v2.31h-4.873V51.177Z" transform="translate(-390 -30)" fill="#D72126"/>
</svg>
